<?xml version="1.0" encoding="UTF-8"?>
<svg id="Layer_1" xmlns="http://www.w3.org/2000/svg" version="1.1" viewBox="0 0 80 80">
  <!-- Generator: Adobe Illustrator 30.1.0, SVG Export Plug-In . SVG Version: 2.1.1 Build 136)  -->
  <defs>
    <style>
      .st0 {
        fill: #fff;
      }
    </style>
  </defs>
  <path class="st0" d="M74.1,52.6c0-.8-.2-1.3-.4-1.9-2-5.7-5.6-9.7-10.5-12.1-2.8-1.4-5.6-2.5-8.5-3.7-1.1-.5-2.3-.9-3.3-1.3-2.7-6.5-6.4-14.9-10.5-23.1-.7-1.4-1.5-2.9-2.3-4.3-1-1.9-2.7-3.2-4-4.2-.7-.6-1.4-1-2.1-1.3-.7-.3-1.4-.3-2.1,0s-1.1.9-1.2,1.8c0,.6,0,1.2,0,1.8l1.8,21.3c-3.6-1.2-7.2-2.6-10.9-3.8l-1.3-2.5c-.8-1.7-1.8-3.4-2.7-5s-1.9-3.1-2.8-4.7l-.7-1.1c-.9-1.5-2.4-2.2-3.5-2.4-.9-.3-1.6,0-1.9.1-.4.2-.9.7-1.1,1.6,0,.4,0,.9,0,1.5v14s0,.3,0,.3v1.2c.4,1.8,1.1,3.3,2.1,4.6,1,1.3,1.3,1.3,2.2,1.8,4,2.4,8.7,4.7,14,7.3,6.1,2.8,12.3,5.5,18.4,8.3l5.7,2.6c4.4,1.9,9.2,3.9,14.3,5.5,2.1.6,4.4,1.2,6.9,1.1.8,0,1.7-.2,2.5-.4s2.1-.9,1.7-2.9h0Z"/>
  <rect class="st0" x="4" y="74" width="72" height="6" rx="3" ry="3"/>
</svg>