<?xml version="1.0" encoding="UTF-8"?>
<svg id="Layer_1" xmlns="http://www.w3.org/2000/svg" version="1.1" viewBox="0 0 80 80">
  <!-- Generator: Adobe Illustrator 30.1.0, SVG Export Plug-In . SVG Version: 2.1.1 Build 136)  -->
  <defs>
    <style>
      .st0 {
        fill: #fff;
      }
    </style>
  </defs>
  <path class="st0" d="M78.7,21.2c-.6-.4-1.2-.7-1.7-.9-5.6-2.2-11-2.2-16,0-2.8,1.2-5.6,2.7-8.3,4-1.1.6-2.2,1.1-3.2,1.7-6.6-2.2-15.4-4.9-24.4-7.2-1.6-.4-3.1-.8-4.7-1.1-2.1-.5-4.1,0-5.8.2-.9.2-1.6.4-2.3.7-.7.3-1.2.9-1.3,1.6s0,1.4.6,2.1c.4.4.8.9,1.3,1.3l17.2,12.6c-3.3,1.9-6.7,3.8-10,5.7l-2.7-.7c-1.8-.4-3.7-.9-5.5-1.2-1.8-.4-3.5-.6-5.3-.9l-1.3-.2c-1.8-.3-3.2.5-4.2,1.1C.3,40.5,0,41.1,0,41.6s0,1.1.5,1.9c.3.3.6.7,1,1l10.6,9.1.2.2c.3.3.6.5,1,.8,1.6.9,3.2,1.4,4.8,1.4s1.9,0,2.8-.5c4.5-1.5,9.3-3.4,14.7-5.8,6.1-2.8,12.2-5.6,18.3-8.5l5.7-2.7c4.4-2,9-4.3,13.5-7.3,1.9-1.2,3.8-2.6,5.4-4.5.5-.6,1-1.4,1.3-2.2.3-.7.6-2.2-1.1-3.3h0Z"/>
  <rect class="st0" x="4" y="74" width="72" height="6" rx="3" ry="3"/>
</svg>