<?xml version="1.0" encoding="UTF-8"?>
<svg id="Layer_1" xmlns="http://www.w3.org/2000/svg" version="1.1" viewBox="0 0 80 80">
  <!-- Generator: Adobe Illustrator 30.1.0, SVG Export Plug-In . SVG Version: 2.1.1 Build 136)  -->
  <defs>
    <style>
      .st0 {
        fill: #fff;
      }
    </style>
  </defs>
  <path class="st0" d="M80,55.6l-31.5-7.5c-.3,0-.6,0-.9.2-.2.2-.4.5-.4.8l-.6,16.9c0,.4.2.8.6,1l8.8,4.3c1.1.5,1.7,1.7,1.7,2.9v5.8l-17.6-3.1h-.4l-17.6,3.1v-5.8c0-1.3.7-2.4,1.7-2.9l8.8-4.3c.4-.2.6-.6.6-1l-.6-16.9c0-.3-.2-.6-.4-.8s-.6-.3-.9-.2L0,55.6v-5.6c0-2.4,1.6-3.9,2.6-4.6l30.1-22.8c.3-.2.4-.5.4-.8v-12.7c0-2.9,1.2-5.7,3.3-7.7,1.9-1.8,5-1.8,6.9,0,2.1,2,3.3,4.8,3.3,7.7v12.7c0,.3.2.6.4.8l30.2,22.8c1,.7,2.6,2.2,2.6,4.6v5.6h.2Z"/>
</svg>