<?xml version="1.0" encoding="UTF-8"?>
<svg id="Layer_1" xmlns="http://www.w3.org/2000/svg" version="1.1" viewBox="0 0 80 80">
  <!-- Generator: Adobe Illustrator 30.1.0, SVG Export Plug-In . SVG Version: 2.1.1 Build 136)  -->
  <path d="M37.1,26.7v14.9c0,1.6,1.3,2.9,2.9,2.9s2.9-1.3,2.9-2.9v-14.9c0-1.6-1.3-2.9-2.9-2.9s-2.9,1.3-2.9,2.9Z"/>
  <path d="M38,28.7l6.3,6.3c1.1,1.1,2.9,1.1,4,0s1.1-2.9,0-4l-6.3-6.3c-1.1-1.1-2.9-1.1-4,0s-1.1,2.9,0,4Z"/>
  <path d="M38,24.7l-6.3,6.3c-1.1,1.1-1.1,2.9,0,4,1.1,1.1,2.9,1.1,4,0l6.3-6.3c1.1-1.1,1.1-2.9,0-4s-2.9-1.1-4,0Z"/>
  <path d="M8.3,45.4c-1.1,1.1-1.1,2.9,0,4l5.7,5.7c.6.6,1.3.8,2,.8s1.5-.3,2-.8c1.1-1.1,1.1-2.9,0-4l-5.7-5.7c-1.1-1.1-2.9-1.1-4,0h0Z"/>
  <path d="M67.7,45.4l-5.7,5.7c-1.1,1.1-1.1,2.9,0,4s1.3.8,2,.8,1.5-.3,2-.8l5.7-5.7c1.1-1.1,1.1-2.9,0-4s-2.9-1.1-4,0h0Z"/>
  <path d="M77.1,74.3h-10.8c-1.4-13.3-12.7-23.6-26.3-23.6s-24.9,10.4-26.3,23.6H2.9c-1.6,0-2.9,1.3-2.9,2.8s1.3,2.9,2.9,2.9h74.3c1.6,0,2.9-1.3,2.9-2.9s-1.3-2.9-2.9-2.9h-.1Z"/>
</svg>